<svg width="580" height="400" xmlns="http://www.w3.org/2000/svg">
 <!-- Created with Method Draw - http://github.com/duopixel/Method-Draw/ -->

 <g>
  <title>background</title>
  <rect fill="#fff" id="canvas_background" height="402" width="582" y="-1" x="-1"/>
  <g display="none" overflow="visible" y="0" x="0" height="100%" width="100%" id="canvasGrid">
   <rect fill="url(#gridpattern)" stroke-width="0" y="0" x="0" height="100%" width="100%"/>
  </g>
 </g>
 <g>
  <title>Layer 1</title>
  <g id="svg_6">
   <path id="svg_5" d="m393.585194,181.204936c-2.612346,-44.444449 -39.249386,-79.970378 -83.412354,-79.970378c-26.814817,0 -52.780252,13.150619 -68.869142,34.607411c-0.37037,-0.192593 -0.760494,-0.325926 -1.135803,-0.503704c-0.977778,-0.474074 -1.970371,-0.923457 -2.982716,-1.328395c-0.562963,-0.222222 -1.125926,-0.424691 -1.693827,-0.622222c-1.002469,-0.350617 -2.019753,-0.661728 -3.05679,-0.94321c-0.567901,-0.153086 -1.130864,-0.311111 -1.703704,-0.439506c-1.111111,-0.251852 -2.246914,-0.444444 -3.392593,-0.617284c-0.498765,-0.074074 -0.987654,-0.17284 -1.491358,-0.227161c-1.639506,-0.182716 -3.298766,-0.296296 -4.982717,-0.296296c-24.508644,0 -44.444449,19.935804 -44.444449,44.444449c0,0.627161 0.039506,1.244445 0.079012,1.861729l0,0.019753c-20.538274,11.200001 -34.646917,34.656793 -34.646917,58.138277c0,34.977781 28.454324,63.437043 63.432105,63.437043l121.027172,0c0.51358,0 1.022222,-0.02963 1.535803,-0.069136l0.306173,-0.039506l0.661728,0.039506c0.503704,0.039506 1.007408,0.069136 1.525926,0.069136l48.409881,0c32.75062,0 59.397537,-26.646916 59.397537,-59.397537c0,-27.106175 -18.898767,-51.417289 -44.562967,-58.162969zm-14.834569,107.683961l-48.409881,0c-0.291358,0 -0.57284,-0.024691 -0.859259,-0.044444l-1.338272,-0.054321l-0.977778,0.054321c-0.281482,0.019753 -0.567901,0.044444 -0.854321,0.044444l-121.027172,0c-29.530867,0 -53.555561,-24.024694 -53.555561,-53.560499c0,-20.513582 13.358026,-41.807411 31.767904,-50.632104l2.8,-1.338272l0,-3.111111c0,-0.627161 0.039506,-1.264198 0.074074,-1.906173l0.044444,-0.790124l-0.059259,-1.037037c-0.02963,-0.4 -0.059259,-0.8 -0.059259,-1.204938c0,-19.056792 15.511113,-34.567905 34.567905,-34.567905c1.525926,0 3.032099,0.133333 4.528395,0.330864c0.385185,0.049383 0.77037,0.11358 1.150617,0.177778c1.318519,0.217284 2.617284,0.503704 3.896297,0.874074c0.17284,0.049383 0.350617,0.083951 0.523457,0.133333c1.407408,0.42963 2.780247,0.97284 4.123457,1.585185c0.350617,0.158025 0.691358,0.330864 1.037037,0.498765c1.185185,0.587654 2.345679,1.22963 3.466667,1.955556c9.51605,6.162964 15.841977,16.854323 15.841977,29.012348c0,2.730864 2.207408,4.938272 4.938272,4.938272s4.938272,-2.207408 4.938272,-4.938272c0,-13.600001 -6.153087,-25.772842 -15.802471,-33.930867c14.158026,-18.51852 37.471609,-30.26667 60.666672,-30.26667c38.246917,0 70.009883,30.296299 73.323464,68.582723c-5.046914,-0.355556 -12.60247,-0.538272 -20.162965,0.612346c-2.696297,0.409877 -4.548149,2.928395 -4.138272,5.624692c0.37037,2.444445 2.474074,4.197531 4.874075,4.197531c0.246914,0 0.498765,-0.019753 0.745679,-0.059259c10.997532,-1.664198 22.459261,-0.103704 23.130866,-0.009877c22.992595,4.370371 40.32593,25.55062 40.32593,49.308647c0,27.303706 -22.217286,49.520992 -49.520992,49.520992z"/>
  </g>
  <g stroke="null" id="svg_29">
   <g stroke="null" transform="matrix(0.2239356046934585,0,0,0.24270019517632108,-1024.1901958194794,-789.146364580025) " id="svg_11">
    <g stroke="null" id="svg_12">
     <path stroke="null" id="svg_13" d="m5762.578362,4274.729253c-28.249,0 -51.078,22.91 -51.078,51.16c0,28.166 22.829,51.078 51.078,51.078s51.078,-22.912 51.078,-51.078c-0.001,-28.25 -22.829,-51.16 -51.078,-51.16zm0,76.699c-14.125,0 -25.54,-11.498 -25.54,-25.541c0,-14.123 11.415,-25.539 25.54,-25.539c14.124,0 25.539,11.416 25.539,25.539c-0.001,14.043 -11.415,25.541 -25.539,25.541zm385.236,-114.488l0,54.541c0,13.605 -11.029,24.635 -24.636,24.635l-26.36,0c-4.763,-32.684 -32.929,-57.812 -66.927,-57.812c-33.914,0 -62.082,25.129 -66.845,57.812l-133.607,0c-4.763,-32.684 -32.93,-57.812 -66.845,-57.812c-33.915,0 -62.082,25.129 -66.844,57.812l-33.012,0c-13.606,0 -24.635,-11.029 -24.635,-24.635l0,-54.541l509.711,0l0,0zm-117.857,37.789c-28.249,0 -51.16,22.91 -51.16,51.16c0,28.166 22.912,51.078 51.16,51.078c28.166,0 51.077,-22.912 51.077,-51.078c0,-28.25 -22.911,-51.16 -51.077,-51.16zm0,76.699c-14.125,0 -25.539,-11.498 -25.539,-25.541c0,-14.123 11.414,-25.539 25.539,-25.539c14.042,0 25.539,11.416 25.539,25.539c0,14.043 -11.497,25.541 -25.539,25.541zm108.15,-169.412l-96.817,-95.751c-6.159,-6.077 -14.453,-9.526 -23.076,-9.526l-48.86,0l0,-18.313c0,-13.631 -11.004,-24.635 -24.635,-24.635l-281.998,0c-13.55,0 -24.635,11.005 -24.635,24.635l0,3.86l-99.972,11.522l177.146,23.068l-179.446,17.826l178.814,25.423l-178.814,15.504l102.278,19.29l-0.007,48.403l509.712,0l0,-17.985c0,-8.787 -3.531,-17.162 -9.69,-23.321zm-42.209,3.202l-93.697,0c-2.135,0 -3.86,-1.724 -3.86,-3.859l0,-72.347c0,-2.135 1.725,-3.86 3.86,-3.86l17.82,0c0.985,0 1.971,0.411 2.71,1.068l75.796,72.347c2.544,2.381 0.819,6.651 -2.629,6.651z"/>
    </g>
   </g>
   <g stroke="null" transform="matrix(0.2239356046934585,0,0,0.24270019517632108,-1024.1901958194794,-789.146364580025) " id="svg_14"/>
   <g stroke="null" transform="matrix(0.2239356046934585,0,0,0.24270019517632108,-1024.1901958194794,-789.146364580025) " id="svg_15"/>
   <g stroke="null" transform="matrix(0.2239356046934585,0,0,0.24270019517632108,-1024.1901958194794,-789.146364580025) " id="svg_16"/>
   <g stroke="null" transform="matrix(0.2239356046934585,0,0,0.24270019517632108,-1024.1901958194794,-789.146364580025) " id="svg_17"/>
   <g stroke="null" transform="matrix(0.2239356046934585,0,0,0.24270019517632108,-1024.1901958194794,-789.146364580025) " id="svg_18"/>
   <g stroke="null" transform="matrix(0.2239356046934585,0,0,0.24270019517632108,-1024.1901958194794,-789.146364580025) " id="svg_19"/>
   <g stroke="null" transform="matrix(0.2239356046934585,0,0,0.24270019517632108,-1024.1901958194794,-789.146364580025) " id="svg_20"/>
   <g stroke="null" transform="matrix(0.2239356046934585,0,0,0.24270019517632108,-1024.1901958194794,-789.146364580025) " id="svg_21"/>
   <g stroke="null" transform="matrix(0.2239356046934585,0,0,0.24270019517632108,-1024.1901958194794,-789.146364580025) " id="svg_22"/>
   <g stroke="null" transform="matrix(0.2239356046934585,0,0,0.24270019517632108,-1024.1901958194794,-789.146364580025) " id="svg_23"/>
   <g stroke="null" transform="matrix(0.2239356046934585,0,0,0.24270019517632108,-1024.1901958194794,-789.146364580025) " id="svg_24"/>
   <g stroke="null" transform="matrix(0.2239356046934585,0,0,0.24270019517632108,-1024.1901958194794,-789.146364580025) " id="svg_25"/>
   <g stroke="null" transform="matrix(0.2239356046934585,0,0,0.24270019517632108,-1024.1901958194794,-789.146364580025) " id="svg_26"/>
   <g stroke="null" transform="matrix(0.2239356046934585,0,0,0.24270019517632108,-1024.1901958194794,-789.146364580025) " id="svg_27"/>
   <g stroke="null" transform="matrix(0.2239356046934585,0,0,0.24270019517632108,-1024.1901958194794,-789.146364580025) " id="svg_28"/>
  </g>
 </g>
</svg>